<?xml version="1.0" standalone="no"?>
<!DOCTYPE svg PUBLIC "-//W3C//DTD SVG 20010904//EN"
 "http://www.w3.org/TR/2001/REC-SVG-20010904/DTD/svg10.dtd">
<svg version="1.0" xmlns="http://www.w3.org/2000/svg"
 width="275.000000pt" height="275.000000pt" viewBox="0 0 275.000000 275.000000"
 preserveAspectRatio="xMidYMid meet">
<metadata>
Created by potrace 1.11, written by Peter Selinger 2001-2013
</metadata>
<g transform="translate(0.000000,275.000000) scale(0.100000,-0.100000)"
fill="#000000" stroke="none">
<path d="M1268 2705 c-2 -1 -28 -5 -58 -8 -276 -27 -567 -168 -777 -378 -522
-520 -519 -1367 8 -1887 134 -131 324 -249 504 -311 196 -67 442 -84 668 -46
399 68 772 353 951 728 49 103 98 256 116 362 24 144 18 370 -15 510 -10 45
-21 82 -47 155 -112 315 -351 585 -653 734 -147 74 -246 105 -418 132 -34 6
-274 13 -279 9z m267 -280 c444 -70 785 -403 880 -860 14 -65 13 -281 -1 -360
-77 -435 -386 -758 -826 -862 -77 -18 -285 -24 -383 -10 -152 21 -327 95 -462
196 -285 212 -439 527 -428 876 4 129 8 160 31 245 126 462 534 780 1009 788
50 1 131 -5 180 -13z"/>
<path d="M813 1796 c-73 -74 -133 -138 -133 -143 0 -5 30 -39 68 -76 l68 -67
69 70 69 70 71 -70 70 -70 73 73 72 72 -138 138 c-75 75 -142 137 -147 137 -6
0 -70 -61 -142 -134z"/>
<path d="M1637 1792 l-137 -137 73 -73 73 -72 69 70 69 70 71 -70 71 -70 67
68 c37 37 67 71 67 76 0 12 -265 276 -276 276 -5 0 -71 -62 -147 -138z"/>
<path d="M695 1111 c-2 -2 8 -27 22 -55 100 -198 284 -342 500 -392 50 -11
237 -13 283 -3 25 6 52 12 62 14 35 7 141 54 194 86 65 39 167 136 211 200 30
43 86 148 81 150 -7 3 -1350 4 -1353 0z"/>
</g>
</svg>
